<svg id="visual" viewBox="0 0 900 600" width="900" height="600" xmlns="http://www.w3.org/2000/svg" xmlns:xlink="http://www.w3.org/1999/xlink" version="1.1"><rect x="0" y="0" width="900" height="600" fill="#FFFFFF"></rect><path d="M0 154L21.5 153.2C43 152.3 86 150.7 128.8 150.5C171.7 150.3 214.3 151.7 257.2 163.3C300 175 343 197 385.8 192.3C428.7 187.7 471.3 156.3 514.2 156.8C557 157.3 600 189.7 642.8 198.2C685.7 206.7 728.3 191.3 771.2 181.8C814 172.3 857 168.7 878.5 166.8L900 165L900 0L878.5 0C857 0 814 0 771.2 0C728.3 0 685.7 0 642.8 0C600 0 557 0 514.2 0C471.3 0 428.7 0 385.8 0C343 0 300 0 257.2 0C214.3 0 171.7 0 128.8 0C86 0 43 0 21.5 0L0 0Z" fill="#c0b9ed"></path><path d="M0 105L21.5 108.7C43 112.3 86 119.7 128.8 119C171.7 118.3 214.3 109.7 257.2 111C300 112.3 343 123.7 385.8 133.5C428.7 143.3 471.3 151.7 514.2 146C557 140.3 600 120.7 642.8 118.2C685.7 115.7 728.3 130.3 771.2 133.7C814 137 857 129 878.5 125L900 121L900 0L878.5 0C857 0 814 0 771.2 0C728.3 0 685.7 0 642.8 0C600 0 557 0 514.2 0C471.3 0 428.7 0 385.8 0C343 0 300 0 257.2 0C214.3 0 171.7 0 128.8 0C86 0 43 0 21.5 0L0 0Z" fill="#a497db"></path><path d="M0 145L21.5 138C43 131 86 117 128.8 113.7C171.7 110.3 214.3 117.7 257.2 113.2C300 108.7 343 92.3 385.8 93C428.7 93.7 471.3 111.3 514.2 110.7C557 110 600 91 642.8 93.8C685.7 96.7 728.3 121.3 771.2 124.2C814 127 857 108 878.5 98.5L900 89L900 0L878.5 0C857 0 814 0 771.2 0C728.3 0 685.7 0 642.8 0C600 0 557 0 514.2 0C471.3 0 428.7 0 385.8 0C343 0 300 0 257.2 0C214.3 0 171.7 0 128.8 0C86 0 43 0 21.5 0L0 0Z" fill="#8b75c7"></path><path d="M0 100L21.5 102C43 104 86 108 128.8 103.7C171.7 99.3 214.3 86.7 257.2 85.3C300 84 343 94 385.8 90.7C428.7 87.3 471.3 70.7 514.2 66.7C557 62.7 600 71.3 642.8 77.2C685.7 83 728.3 86 771.2 83.5C814 81 857 73 878.5 69L900 65L900 0L878.5 0C857 0 814 0 771.2 0C728.3 0 685.7 0 642.8 0C600 0 557 0 514.2 0C471.3 0 428.7 0 385.8 0C343 0 300 0 257.2 0C214.3 0 171.7 0 128.8 0C86 0 43 0 21.5 0L0 0Z" fill="#7353b3"></path><path d="M0 27L21.5 27.7C43 28.3 86 29.7 128.8 31.7C171.7 33.7 214.3 36.3 257.2 40.2C300 44 343 49 385.8 53.2C428.7 57.3 471.3 60.7 514.2 60.7C557 60.7 600 57.3 642.8 55.2C685.7 53 728.3 52 771.2 47.5C814 43 857 35 878.5 31L900 27L900 0L878.5 0C857 0 814 0 771.2 0C728.3 0 685.7 0 642.8 0C600 0 557 0 514.2 0C471.3 0 428.7 0 385.8 0C343 0 300 0 257.2 0C214.3 0 171.7 0 128.8 0C86 0 43 0 21.5 0L0 0Z" fill="#5c309d"></path></svg>